<svg xmlns="http://www.w3.org/2000/svg" viewBox="0 0 512 512" width="512" height="512" role="img" aria-label="Branch out Trivial Matters">
  <defs>
    <linearGradient id="tv-spark" gradientUnits="userSpaceOnUse" x1="150" y1="400" x2="360" y2="110">
      <stop offset="0"    stop-color="#f0cf82"/>
      <stop offset="0.5"  stop-color="#e5397e"/>
      <stop offset="1"    stop-color="#2bb7a3"/>
    </linearGradient>
    <radialGradient id="tv-bg" cx="0.5" cy="0.45" r="0.75">
      <stop offset="0" stop-color="#2a2018"/>
      <stop offset="1" stop-color="#120c08"/>
    </radialGradient>
    <radialGradient id="tv-glow" cx="0.5" cy="0.42" r="0.5">
      <stop offset="0" stop-color="#e8b04b" stop-opacity="0.30"/>
      <stop offset="1" stop-color="#e8b04b" stop-opacity="0"/>
    </radialGradient>
  </defs>
  <rect width="512" height="512" fill="url(#tv-bg)"/>
  <circle cx="256" cy="230" r="210" fill="url(#tv-glow)"/>
  <!-- The question mark: a smooth bold hook + stem in the spark gradient (two-pass), with the gold
       dot doubling as the family gold-root node. -->
  <g fill="none" stroke="url(#tv-spark)" stroke-linecap="round" stroke-linejoin="round">
    <path d="M168 182 C158 132 198 100 246 100 C300 100 336 132 332 182 C328 224 298 240 276 258 C262 268 256 284 256 302 L256 320" stroke-width="54" opacity="0.14"/>
    <path d="M168 182 C158 132 198 100 246 100 C300 100 336 132 332 182 C328 224 298 240 276 258 C262 268 256 284 256 302 L256 320" stroke-width="36"/>
  </g>
  <!-- spark accents around the hook -->
  <circle cx="318" cy="120" r="9" fill="#2bb7a3"/>
  <circle cx="196" cy="116" r="7" fill="#e5397e"/>
  <circle cx="340" cy="216" r="7" fill="#e8b04b"/>
  <g fill="#ffffff" opacity="0.55">
    <circle cx="246" cy="94" r="5"/> <circle cx="330" cy="176" r="4"/>
  </g>
  <!-- gold root node: the dot of the question mark -->
  <circle cx="256" cy="392" r="24" fill="#e8b04b"/>
  <circle cx="247" cy="383" r="7" fill="#ffffff" opacity="0.5"/>
</svg>
