<svg xmlns="http://www.w3.org/2000/svg" viewBox="0 0 512 512" width="512" height="512" role="img" aria-label="Branch out Lone Leaf">
  <defs>
    <radialGradient id="ll-bg" cx="0.5" cy="0.4" r="0.8">
      <stop offset="0" stop-color="#132015"/>
      <stop offset="1" stop-color="#0d0a15"/>
    </radialGradient>
    <radialGradient id="ll-glow" cx="0.5" cy="0.42" r="0.55">
      <stop offset="0" stop-color="#7CC77C" stop-opacity="0.30"/>
      <stop offset="1" stop-color="#7CC77C" stop-opacity="0"/>
    </radialGradient>
    <linearGradient id="ll-leaf" x1="0" y1="0" x2="0" y2="1">
      <stop offset="0" stop-color="#9be08a"/>
      <stop offset="1" stop-color="#3f9d4f"/>
    </linearGradient>
  </defs>
  <rect width="512" height="512" fill="url(#ll-bg)"/>
  <circle cx="256" cy="216" r="210" fill="url(#ll-glow)"/>

  <!-- the lone leaf: a single oak-shaped leaf, its stem trailing down to the gold root -->
  <g>
    <!-- leaf blade, a soft pointed oval bent slightly to the right -->
    <path d="M256 96
             C 178 128, 152 232, 200 316
             C 232 300, 300 300, 312 232
             C 320 176, 300 124, 256 96 Z"
          fill="url(#ll-leaf)" stroke="#2f7a3c" stroke-width="6"/>
    <!-- central vein and a few side veins -->
    <g stroke="#2f7a3c" stroke-width="5" stroke-linecap="round" fill="none" opacity="0.85">
      <path d="M256 120 L 232 300"/>
      <path d="M250 168 L 210 190"/>
      <path d="M247 214 L 208 238"/>
      <path d="M258 168 L 300 186"/>
      <path d="M256 214 L 300 232"/>
    </g>
  </g>

  <!-- the stem falling to the single gold root node (the family gold-root mark) -->
  <path d="M232 300 C 244 348, 258 372, 256 404" fill="none" stroke="#6b4f2a" stroke-width="9" stroke-linecap="round"/>
  <circle cx="256" cy="418" r="20" fill="#d2a463" stroke="#a97e3f" stroke-width="5"/>
</svg>
