<svg xmlns="http://www.w3.org/2000/svg" viewBox="0 0 800 450" width="800" height="450" role="img" aria-label="Branch out Reversi">
  <defs>
    <radialGradient id="hrv-bg" cx="0.55" cy="0.4" r="0.85">
      <stop offset="0" stop-color="#0f2019"/>
      <stop offset="1" stop-color="#08120c"/>
    </radialGradient>
    <linearGradient id="hrv-wood" x1="0" y1="0" x2="1" y2="1">
      <stop offset="0" stop-color="#26795a"/>
      <stop offset="1" stop-color="#1c5a43"/>
    </linearGradient>
    <radialGradient id="hrv-violet" cx="0.38" cy="0.34" r="0.75">
      <stop offset="0" stop-color="#14100c"/>
      <stop offset="1" stop-color="#050403"/>
    </radialGradient>
    <radialGradient id="hrv-amber" cx="0.38" cy="0.34" r="0.75">
      <stop offset="0" stop-color="#f2ebda"/>
      <stop offset="1" stop-color="#cdbf9f"/>
    </radialGradient>
    <radialGradient id="hrv-glow" cx="0.66" cy="0.42" r="0.5">
      <stop offset="0" stop-color="#c9a24b" stop-opacity="0.30"/>
      <stop offset="1" stop-color="#c9a24b" stop-opacity="0"/>
    </radialGradient>
  </defs>
  <rect width="800" height="450" fill="url(#hrv-bg)"/>
  <circle cx="580" cy="220" r="290" fill="url(#hrv-glow)"/>

  <!-- the wood-grain board, tilted for depth -->
  <g transform="rotate(-6 580 225)">
    <rect x="452" y="97" width="256" height="256" rx="22" fill="url(#hrv-wood)" stroke="#123f2e" stroke-width="5"/>
    <g stroke="#123f2e" stroke-width="3" opacity="0.55">
      <line x1="516" y1="97" x2="516" y2="353"/>
      <line x1="580" y1="97" x2="580" y2="353"/>
      <line x1="644" y1="97" x2="644" y2="353"/>
      <line x1="452" y1="161" x2="708" y2="161"/>
      <line x1="452" y1="225" x2="708" y2="225"/>
      <line x1="452" y1="289" x2="708" y2="289"/>
    </g>

    <!-- gold root node (the single family gold root) -->
    <circle cx="580" cy="225" r="17" fill="#c9a24b" stroke="#9a7a38" stroke-width="4"/>

    <!-- violet discs -->
    <circle cx="516" cy="161" r="25" fill="url(#hrv-violet)" stroke="#050403" stroke-width="4"/>
    <circle cx="516" cy="289" r="25" fill="url(#hrv-violet)" stroke="#050403" stroke-width="4"/>
    <circle cx="644" cy="225" r="25" fill="url(#hrv-violet)" stroke="#050403" stroke-width="4"/>

    <!-- amber discs -->
    <circle cx="644" cy="161" r="25" fill="url(#hrv-amber)" stroke="#cdbf9f" stroke-width="4"/>
    <circle cx="644" cy="289" r="25" fill="url(#hrv-amber)" stroke="#cdbf9f" stroke-width="4"/>
    <circle cx="516" cy="225" r="25" fill="url(#hrv-amber)" stroke="#cdbf9f" stroke-width="4"/>

    <!-- discs mid-flip: half violet, half amber (the signature turn) -->
    <g transform="translate(580 289)">
      <path d="M -25 0 A 25 25 0 0 1 25 0 Z" fill="url(#hrv-violet)"/>
      <path d="M 25 0 A 25 25 0 0 1 -25 0 Z" fill="url(#hrv-amber)"/>
      <circle cx="0" cy="0" r="25" fill="none" stroke="#123f2e" stroke-width="4"/>
    </g>
    <g transform="translate(580 161)">
      <path d="M -25 0 A 25 25 0 0 1 25 0 Z" fill="url(#hrv-amber)"/>
      <path d="M 25 0 A 25 25 0 0 1 -25 0 Z" fill="url(#hrv-violet)"/>
      <circle cx="0" cy="0" r="25" fill="none" stroke="#123f2e" stroke-width="4"/>
    </g>
  </g>

  <!-- Wordmark, in the system-font stack (the raster pipeline embeds no fonts). -->
  <text x="60" y="235" font-family="-apple-system, BlinkMacSystemFont, 'Segoe UI', Roboto, sans-serif"
        font-size="70" font-weight="700" fill="#edf3ec">Reversi</text>
  <text x="62" y="285" font-family="-apple-system, BlinkMacSystemFont, 'Segoe UI', Roboto, sans-serif"
        font-size="26" font-weight="500" fill="#9db7a6">Bracket a line. Flip the board.</text>
</svg>
