<svg xmlns="http://www.w3.org/2000/svg" viewBox="0 0 600 800" width="600" height="800" role="img" aria-label="Branch out Liar Liar">
  <defs>
    <radialGradient id="hllp-bg" cx="0.5" cy="0.38" r="0.9">
      <stop offset="0" stop-color="#3d1f4a"/>
      <stop offset="1" stop-color="#1c0f22"/>
    </radialGradient>
    <!-- Glow centred on the mask and faded to 0 inside the frame (no hard edge). -->
    <radialGradient id="hllp-glow" cx="0.5" cy="0.5" r="0.46">
      <stop offset="0" stop-color="#d9a441" stop-opacity="0.30"/>
      <stop offset="1" stop-color="#d9a441" stop-opacity="0"/>
    </radialGradient>
    <linearGradient id="hllp-gold" x1="0" y1="0" x2="0" y2="1">
      <stop offset="0" stop-color="#f0cf82"/>
      <stop offset="1" stop-color="#c8892f"/>
    </linearGradient>
  </defs>
  <rect width="600" height="800" fill="url(#hllp-bg)"/>
  <circle cx="300" cy="290" r="300" fill="url(#hllp-glow)"/>
  <!-- The Venetian-mask motif, recentred on the portrait column (the same geometry as the wide hero,
       wrapped in a transform). -->
  <g transform="translate(300 272) scale(1.15) translate(-510 -244)">
    <g stroke-linecap="round" fill="none" stroke="#d5a03a">
      <path d="M510 206 L510 404" stroke-width="24" opacity="0.18"/>
      <path d="M510 206 L510 404" stroke-width="11"/>
    </g>
    <g transform="translate(360 45) scale(3.0)" stroke-linecap="round" stroke-linejoin="round">
      <g fill="none" stroke="#d9a441" stroke-width="2.6">
        <path d="M50 24 C50 16 44 12 38 14 C42 16 43 20 40 24"/>
        <path d="M50 24 C50 16 56 12 62 14 C58 16 57 20 60 24"/>
        <path d="M30 25 C24 18 17 19 15 25 C20 24 24 26 27 30"/>
        <path d="M70 25 C76 18 83 19 85 25 C80 24 76 26 73 30"/>
      </g>
      <path fill-rule="evenodd" fill="url(#hllp-gold)"
            d="M50 33 C45 24 37 21 29 23 C20 25 13 31 11 40 C10 45 14 49 20 51 C28 57 37 58 44 53 C47 51 49 49 50 47 C51 49 53 51 56 53 C63 58 72 57 80 51 C86 49 90 45 89 40 C87 31 80 25 71 23 C63 21 55 24 50 33 Z M25 40 C29 35 38 35 42 40 C38 45 29 45 25 40 Z M58 40 C62 35 71 35 75 40 C71 45 62 45 58 40 Z"/>
      <g fill="none" stroke="#9a7226" stroke-width="1.5" opacity="0.7">
        <path d="M25 40 C29 35 38 35 42 40 C38 45 29 45 25 40 Z"/>
        <path d="M58 40 C62 35 71 35 75 40 C71 45 62 45 58 40 Z"/>
        <path d="M50 34 C48 40 48 44 50 47 C52 44 52 40 50 34 Z"/>
      </g>
      <g fill="none" stroke="#f3d488" stroke-width="1.3" opacity="0.9">
        <path d="M14 39 C16 32 22 28 29 27"/>
        <path d="M86 39 C84 32 78 28 71 27"/>
      </g>
      <circle cx="50" cy="30" r="4.4" fill="none" stroke="#f3d488" stroke-width="1.3"/>
      <circle cx="50" cy="30" r="3" fill="#d23a55"/>
      <path d="M33 47 C31 50 31 53 33 54 C35 53 35 50 33 47 Z" fill="#d23a55"/>
    </g>
    <circle cx="510" cy="404" r="22" fill="#d9a441" opacity="0.2"/>
    <circle cx="510" cy="404" r="12" fill="#d9a441"/>
    <g opacity="0.9">
      <circle cx="386" cy="150" r="6" fill="#d23a55"/>
      <circle cx="642" cy="150" r="6" fill="#2e9e6b"/>
      <circle cx="632" cy="232" r="5" fill="#c8892f"/>
    </g>
    <g fill="#ffffff" opacity="0.5">
      <circle cx="386" cy="146" r="3"/> <circle cx="638" cy="146" r="3"/>
    </g>
  </g>
  <!-- Wordmark + tagline, centered at the base (system-font stack; the sharp pipeline embeds no fonts). -->
  <text x="300" y="572" text-anchor="middle" font-family="-apple-system, BlinkMacSystemFont, 'Segoe UI', Roboto, sans-serif"
        font-size="66" font-weight="700" fill="#f3e9f0">Liar Liar</text>
  <text x="300" y="618" text-anchor="middle" font-family="-apple-system, BlinkMacSystemFont, 'Segoe UI', Roboto, sans-serif"
        font-size="26" font-weight="500" fill="#c9b3c2">Bluff your friends. Spot the truth.</text>
</svg>
