<svg xmlns="http://www.w3.org/2000/svg" viewBox="0 0 600 800" width="600" height="800" role="img" aria-label="Branch out Checkers">
  <defs>
    <radialGradient id="hckp-bg" cx="0.5" cy="0.38" r="0.9">
      <stop offset="0" stop-color="#221836"/>
      <stop offset="1" stop-color="#0d0a15"/>
    </radialGradient>
    <radialGradient id="hckp-glow" cx="0.5" cy="0.38" r="0.55">
      <stop offset="0" stop-color="#7C3AED" stop-opacity="0.30"/>
      <stop offset="1" stop-color="#7C3AED" stop-opacity="0"/>
    </radialGradient>
    <linearGradient id="hckp-wood" x1="0" y1="0" x2="1" y2="1">
      <stop offset="0" stop-color="#4a3524"/>
      <stop offset="1" stop-color="#2e2016"/>
    </linearGradient>
    <radialGradient id="hckp-violet" cx="0.38" cy="0.34" r="0.75">
      <stop offset="0" stop-color="#C4B5FD"/>
      <stop offset="1" stop-color="#6D28D9"/>
    </radialGradient>
    <radialGradient id="hckp-amber" cx="0.38" cy="0.34" r="0.75">
      <stop offset="0" stop-color="#FDE047"/>
      <stop offset="1" stop-color="#CA8A04"/>
    </radialGradient>
  </defs>
  <rect width="600" height="800" fill="url(#hckp-bg)"/>
  <circle cx="300" cy="300" r="340" fill="url(#hckp-glow)"/>

  <!-- The Checkers board motif, recomposed upright: the shared 800x450 scene's tilted board, recentered
       on the portrait column (translate/scale/rotate wrap keeps the exact brand geometry). -->
  <g transform="translate(300 300) scale(1.35) rotate(-6) translate(-580 -225)">
    <rect x="452" y="97" width="256" height="256" rx="22" fill="url(#hckp-wood)" stroke="#1c130c" stroke-width="5"/>
    <g stroke="#1c130c" stroke-width="3" opacity="0.55">
      <line x1="516" y1="97" x2="516" y2="353"/>
      <line x1="580" y1="97" x2="580" y2="353"/>
      <line x1="644" y1="97" x2="644" y2="353"/>
      <line x1="452" y1="161" x2="708" y2="161"/>
      <line x1="452" y1="225" x2="708" y2="225"/>
      <line x1="452" y1="289" x2="708" y2="289"/>
    </g>

    <!-- amber men (top row, flanking the king) -->
    <ellipse cx="516" cy="161" rx="25" ry="18" fill="url(#hckp-amber)" stroke="#854D0E" stroke-width="4"/>
    <ellipse cx="644" cy="161" rx="25" ry="18" fill="url(#hckp-amber)" stroke="#854D0E" stroke-width="4"/>

    <!-- a crowned violet KING: a stacked piece wearing the gold-root crown ring, top center -->
    <g transform="translate(580 161)">
      <ellipse cx="0" cy="7" rx="28" ry="20" fill="url(#hckp-violet)" stroke="#4C1D95" stroke-width="4"/>
      <ellipse cx="0" cy="-5" rx="28" ry="20" fill="url(#hckp-violet)" stroke="#4C1D95" stroke-width="4"/>
      <ellipse cx="0" cy="-5" rx="15" ry="10" fill="none" stroke="#d2a463" stroke-width="5"/>
    </g>

    <!-- gold root node (the single family gold root), center square -->
    <circle cx="580" cy="225" r="17" fill="#d2a463" stroke="#a97e46" stroke-width="4"/>

    <!-- violet men (bottom row) -->
    <ellipse cx="516" cy="289" rx="25" ry="18" fill="url(#hckp-violet)" stroke="#4C1D95" stroke-width="4"/>
    <ellipse cx="644" cy="289" rx="25" ry="18" fill="url(#hckp-violet)" stroke="#4C1D95" stroke-width="4"/>
  </g>

  <!-- Wordmark + tagline, centered at the base (system-font stack; the sharp pipeline embeds no fonts). -->
  <text x="300" y="572" text-anchor="middle" font-family="-apple-system, BlinkMacSystemFont, 'Segoe UI', Roboto, sans-serif"
        font-size="72" font-weight="700" fill="#f4f1fb">Checkers</text>
  <text x="300" y="618" text-anchor="middle" font-family="-apple-system, BlinkMacSystemFont, 'Segoe UI', Roboto, sans-serif"
        font-size="26" font-weight="500" fill="#b9b2cf">Jump, chain, and crown a King.</text>
</svg>
