<svg xmlns="http://www.w3.org/2000/svg" viewBox="0 0 256 256" width="256" height="256" role="img" aria-label="deer avatar">
  <rect width="256" height="256" rx="56" fill="#EC4899"/>
  <circle cx="40" cy="54" r="6" fill="#FFFFFF"/>
  <rect x="198" y="38" width="12" height="12" rx="3" fill="#FBBF24" transform="rotate(24 204 44)"/>
  <circle cx="214" cy="206" r="6" fill="#34D399"/>
  <rect x="36" y="198" width="12" height="12" rx="3" fill="#38BDF8" transform="rotate(-18 42 204)"/>
  <path d="M104 92 C92 66 80 64 74 50 M92 66 C82 62 76 64 70 58 M96 76 C88 76 82 78 76 78" fill="none" stroke="#d2a463" stroke-width="7" stroke-linecap="round"/>
  <path d="M152 92 C164 66 176 64 182 50 M164 66 C174 62 180 64 186 58 M160 76 C168 76 174 78 180 78" fill="none" stroke="#d2a463" stroke-width="7" stroke-linecap="round"/>
  <ellipse cx="86" cy="112" rx="14" ry="24" fill="#d2a463" transform="rotate(-22 86 112)"/>
  <ellipse cx="170" cy="112" rx="14" ry="24" fill="#d2a463" transform="rotate(22 170 112)"/>
  <circle cx="128" cy="142" r="52" fill="#d2a463"/>
  <ellipse cx="128" cy="164" rx="27" ry="23" fill="#FFF7ED"/>
  <circle cx="110" cy="134" r="8" fill="#1E1B2E"/>
  <circle cx="146" cy="134" r="8" fill="#1E1B2E"/>
  <circle cx="94" cy="152" r="7" fill="#F9A8D4" opacity="0.6"/>
  <circle cx="162" cy="152" r="7" fill="#F9A8D4" opacity="0.6"/>
  <ellipse cx="128" cy="156" rx="8" ry="6" fill="#1E1B2E"/>
  <path d="M114 168 q14 12 28 0" fill="none" stroke="#1E1B2E" stroke-width="6" stroke-linecap="round"/>
</svg>
