<svg xmlns="http://www.w3.org/2000/svg" viewBox="0 0 256 256" width="256" height="256" role="img" aria-label="bear avatar">
  <rect width="256" height="256" rx="56" fill="#34D399"/>
  <circle cx="40" cy="54" r="6" fill="#FFFFFF"/>
  <rect x="198" y="38" width="12" height="12" rx="3" fill="#FBBF24" transform="rotate(24 204 44)"/>
  <circle cx="214" cy="206" r="6" fill="#F472B6"/>
  <rect x="36" y="198" width="12" height="12" rx="3" fill="#7C3AED" transform="rotate(-18 42 204)"/>
  <circle cx="90" cy="98" r="23" fill="#B45309"/>
  <circle cx="166" cy="98" r="23" fill="#B45309"/>
  <circle cx="90" cy="98" r="11" fill="#FBCFE8"/>
  <circle cx="166" cy="98" r="11" fill="#FBCFE8"/>
  <circle cx="128" cy="140" r="60" fill="#B45309"/>
  <ellipse cx="128" cy="158" rx="32" ry="26" fill="#FDE68A"/>
  <circle cx="108" cy="128" r="8" fill="#1E1B2E"/>
  <circle cx="148" cy="128" r="8" fill="#1E1B2E"/>
  <ellipse cx="128" cy="148" rx="9" ry="7" fill="#1E1B2E"/>
  <path d="M112 162 q16 14 32 0" fill="none" stroke="#1E1B2E" stroke-width="7" stroke-linecap="round"/>
</svg>
