<svg xmlns="http://www.w3.org/2000/svg" viewBox="0 0 256 256" width="256" height="256" role="img" aria-label="sunflower avatar">
  <rect width="256" height="256" rx="56" fill="#7C3AED"/>
  <circle cx="40" cy="54" r="6" fill="#FFFFFF"/>
  <rect x="198" y="38" width="12" height="12" rx="3" fill="#FBBF24" transform="rotate(24 204 44)"/>
  <circle cx="214" cy="206" r="6" fill="#F472B6"/>
  <rect x="36" y="198" width="12" height="12" rx="3" fill="#38BDF8" transform="rotate(-18 42 204)"/>
  <g fill="#FBBF24">
    <ellipse cx="128" cy="74" rx="15" ry="30"/>
    <ellipse cx="128" cy="202" rx="15" ry="30"/>
    <ellipse cx="64" cy="138" rx="30" ry="15"/>
    <ellipse cx="192" cy="138" rx="30" ry="15"/>
    <ellipse cx="83" cy="93" rx="15" ry="30" transform="rotate(45 83 93)"/>
    <ellipse cx="173" cy="93" rx="15" ry="30" transform="rotate(-45 173 93)"/>
    <ellipse cx="83" cy="183" rx="15" ry="30" transform="rotate(-45 83 183)"/>
    <ellipse cx="173" cy="183" rx="15" ry="30" transform="rotate(45 173 183)"/>
  </g>
  <circle cx="128" cy="138" r="44" fill="#B45309"/>
  <circle cx="112" cy="132" r="8" fill="#1E1B2E"/>
  <circle cx="144" cy="132" r="8" fill="#1E1B2E"/>
  <circle cx="100" cy="146" r="7" fill="#F9A8D4" opacity="0.6"/>
  <circle cx="156" cy="146" r="7" fill="#F9A8D4" opacity="0.6"/>
  <path d="M114 150 q14 14 28 0" fill="none" stroke="#1E1B2E" stroke-width="7" stroke-linecap="round"/>
</svg>
