<svg xmlns="http://www.w3.org/2000/svg" viewBox="0 0 256 256" width="256" height="256" role="img" aria-label="fox avatar">
  <rect width="256" height="256" rx="56" fill="#7C3AED"/>
  <circle cx="40" cy="54" r="6" fill="#FFFFFF"/>
  <rect x="198" y="38" width="12" height="12" rx="3" fill="#FBBF24" transform="rotate(24 204 44)"/>
  <circle cx="214" cy="206" r="6" fill="#F472B6"/>
  <rect x="36" y="198" width="12" height="12" rx="3" fill="#38BDF8" transform="rotate(-18 42 204)"/>
  <path d="M78 102 L98 62 L120 104 Z" fill="#F97316"/>
  <path d="M178 102 L158 62 L136 104 Z" fill="#F97316"/>
  <path d="M86 98 L98 74 L110 99 Z" fill="#FBCFE8"/>
  <path d="M170 98 L158 74 L146 99 Z" fill="#FBCFE8"/>
  <circle cx="128" cy="134" r="58" fill="#F97316"/>
  <path d="M90 132 q38 -14 76 0 q-8 44 -38 56 q-30 -12 -38 -56 z" fill="#FFF7ED"/>
  <circle cx="106" cy="124" r="9" fill="#1E1B2E"/>
  <circle cx="150" cy="124" r="9" fill="#1E1B2E"/>
  <circle cx="92" cy="146" r="7" fill="#F9A8D4" opacity="0.6"/>
  <circle cx="164" cy="146" r="7" fill="#F9A8D4" opacity="0.6"/>
  <path d="M118 150 q10 12 20 0 q-4 14 -10 14 q-6 0 -10 -14 z" fill="#1E1B2E"/>
</svg>
