<svg xmlns="http://www.w3.org/2000/svg" viewBox="0 0 256 256" width="256" height="256" role="img" aria-label="hedgehog avatar">
  <rect width="256" height="256" rx="56" fill="#FBBF24"/>
  <circle cx="40" cy="54" r="6" fill="#FFFFFF"/>
  <rect x="198" y="38" width="12" height="12" rx="3" fill="#7C3AED" transform="rotate(24 204 44)"/>
  <circle cx="214" cy="206" r="6" fill="#F472B6"/>
  <rect x="36" y="198" width="12" height="12" rx="3" fill="#34D399" transform="rotate(-18 42 204)"/>
  <path d="M70 158 L80 120 L92 146 L100 112 L112 142 L120 108 L128 140 L136 108 L144 142 L156 112 L164 146 L176 120 L186 158 A58 58 0 0 1 70 158 Z" fill="#6B4423"/>
  <path d="M96 138 L100 122 L106 136 M124 134 L128 118 L132 134 M150 138 L156 122 L160 136" fill="none" stroke="#8B5E34" stroke-width="5" stroke-linecap="round"/>
  <ellipse cx="128" cy="158" rx="43" ry="37" fill="#E6C79C"/>
  <path d="M110 178 q18 24 36 0 q-6 24 -18 28 q-12 -4 -18 -28 z" fill="#F0DBBF"/>
  <circle cx="128" cy="200" r="8" fill="#1E1B2E"/>
  <circle cx="110" cy="154" r="8" fill="#1E1B2E"/>
  <circle cx="146" cy="154" r="8" fill="#1E1B2E"/>
  <circle cx="96" cy="170" r="7" fill="#F9A8D4" opacity="0.6"/>
  <circle cx="160" cy="170" r="7" fill="#F9A8D4" opacity="0.6"/>
</svg>
